<?xml version="1.0" encoding="UTF-8"?>
<svg version="1.1" xmlns="http://www.w3.org/2000/svg" width="363" height="70">
<path d="M0 0 C119.79 0 239.58 0 363 0 C363 23.1 363 46.2 363 70 C243.21 70 123.42 70 0 70 C0 46.9 0 23.8 0 0 Z " fill="#FCFCFD" transform="translate(0,0)"/>
<path d="M0 0 C3.91187399 2.06853891 6.39348201 4.13129033 7.89453125 8.28125 C8.54080366 14.31615993 8.75087922 19.30013388 4.89453125 24.28125 C4.89453125 24.94125 4.89453125 25.60125 4.89453125 26.28125 C6.21453125 26.61125 7.53453125 26.94125 8.89453125 27.28125 C8.56453125 28.60125 8.23453125 29.92125 7.89453125 31.28125 C4.7949232 31.42541782 2.45811325 31.52496113 -0.41796875 30.28125 C-3.1858667 29.25133448 -4.64762496 29.26099864 -7.54296875 29.40625 C-13.37119143 29.53210863 -16.28314296 27.00507169 -20.41796875 23.09375 C-22.75116058 19.20509695 -23.29888447 15.79170456 -23.10546875 11.28125 C-21.56297264 6.05390207 -19.67555625 3.25180688 -15.10546875 0.28125 C-10.24121101 -1.34016925 -4.91117446 -1.67654193 0 0 Z " fill="#9D90DD" transform="translate(237.10546875,19.71875)"/>
<path d="M0 0 C1.98 0 3.96 0 6 0 C6 9.57 6 19.14 6 29 C3.33333333 29 0.66666667 29 -2 29 C-2.65613281 29.06960937 -3.31226563 29.13921875 -3.98828125 29.2109375 C-8.53583956 29.53194162 -10.3766351 29.49614757 -14.0625 26.5625 C-16.3321712 23.22521343 -16.71192575 20.10030546 -16.50390625 16.12109375 C-15.69744628 12.72645992 -13.67613968 11.08869438 -11 9 C-10.67 8.67 -10.34 8.34 -10 8 C-5.69086333 7.71272422 -3.99024747 8.00487627 0 10 C0 6.7 0 3.4 0 0 Z " fill="#717070" transform="translate(181,19)"/>
<path d="M0 0 C5.5 3 5.5 3 7 6 C7.47657252 9.40839841 7.53958841 12.5968533 7 16 C4.29118254 19.56423351 2.87671442 20.64082021 -1.44921875 21.46875 C-6.10911934 21.74736887 -8.29636108 21.54567916 -12.0625 18.625 C-15.0995729 14.51025607 -15.43675031 12.1536537 -15 7 C-11.1597513 1.04099339 -7.05874383 -1.11874431 0 0 Z " fill="#6D6D6D" transform="translate(155,27)"/>
<path d="M0 0 C1.6645214 0.9593881 3.26739605 2.02422776 4.85546875 3.10546875 C4.19546875 4.42546875 3.53546875 5.74546875 2.85546875 7.10546875 C0.68672623 6.59942883 -1.14420752 6.10563062 -3.14453125 5.10546875 C-7.47780299 4.61490968 -9.46453469 4.62802436 -13.08203125 7.16796875 C-15.64927156 10.82434131 -15.7026079 12.72058075 -15.14453125 17.10546875 C-14.30048168 19.70795493 -13.60485675 20.74743781 -11.45703125 22.41796875 C-7.35357669 23.6379147 -3.56613033 22.72514015 0.29296875 21.04296875 C1.06640625 20.57890625 1.06640625 20.57890625 1.85546875 20.10546875 C2.84546875 20.76546875 3.83546875 21.42546875 4.85546875 22.10546875 C3.92001472 24.44410383 3.28904705 25.82695148 1.140625 27.20703125 C-3.46731952 29.01870175 -8.30461416 28.83936468 -13.14453125 28.10546875 C-17.48156243 25.80631969 -20.29513028 22.64335076 -22.14453125 18.10546875 C-22.8773823 13.41863067 -22.58855753 9.96180514 -20.39453125 5.73046875 C-15.12389323 -0.41860894 -7.86074495 -3.27888997 0 0 Z " fill="#6D6D6D" transform="translate(133.14453125,19.89453125)"/>
<path d="M0 0 C5.53846154 3.07692308 5.53846154 3.07692308 7 6 C7 8.31 7 10.62 7 13 C2.38 13.33 -2.24 13.66 -7 14 C-7 14.66 -7 15.32 -7 16 C-5.7625 16 -4.525 16 -3.25 16 C-0.5 16 2.25 16 5 16 C5.33 16.99 5.66 17.98 6 19 C1.52954028 21.98030648 -2.76272255 21.71974281 -8 21 C-11.2987309 18.95478684 -12.5317353 17.55060108 -13.65234375 13.83984375 C-14.3702025 9.7446305 -14.41803975 7.70170959 -12.25 4.0625 C-8.04902338 0.21160476 -5.67216942 -0.57683079 0 0 Z " fill="#706F6F" transform="translate(204,27)"/>
<path d="M0 0 C2.72122817 1.73605947 3.36063848 3.04914926 5 6 C5 7.98 5 9.96 5 12 C0.05 12 -4.9 12 -10 12 C-9.01 13.485 -9.01 13.485 -8 15 C-4.46327974 15.30754089 -1.38954801 15.04293785 2 14 C2.66 15.32 3.32 16.64 4 18 C0.81835698 20.56584114 -1.50778794 21.259927 -5.5 21 C-10.01073806 20.33090719 -12.16581304 18.63130205 -15 15 C-16.55024464 11.89951072 -16.28992015 9.42105782 -16 6 C-11.84496495 -0.37105375 -7.3161107 -1.20595231 0 0 Z " fill="#A396DC" transform="translate(289,28)"/>
<path d="M0 0 C4.6 2.2 4.6 2.2 6 5 C6.16796875 7.05859375 6.16796875 7.05859375 6.1875 9.4375 C6.20167969 10.21996094 6.21585938 11.00242187 6.23046875 11.80859375 C6 14 6 14 4 17 C2.02 16.67 0.04 16.34 -2 16 C-1.67 17.32 -1.34 18.64 -1 20 C-7.37534247 19.50958904 -7.37534247 19.50958904 -10.375 17.0625 C-12.78522835 14.00336402 -13.16764465 12.45482781 -12.875 8.625 C-12.43631011 5.21966969 -12.13825962 4.16672483 -9.875 1.4375 C-6.25075063 -0.37462469 -4.01026576 -0.50128322 0 0 Z " fill="#FAF9FC" transform="translate(233,24)"/>
<path d="M0 0 C0.86395386 0.32701904 0.86395386 0.32701904 1.74536133 0.66064453 C2.11254883 2.85986328 2.11254883 2.85986328 1.74536133 5.66064453 C-0.20473195 7.53619296 -1.93069872 8.96105882 -4.12963867 10.47314453 C-4.68522461 10.87984375 -5.24081055 11.28654297 -5.81323242 11.70556641 C-9.93544224 14.66064453 -9.93544224 14.66064453 -12.25463867 14.66064453 C-12.25463867 15.32064453 -12.25463867 15.98064453 -12.25463867 16.66064453 C-11.42706055 17.02802734 -11.42706055 17.02802734 -10.58276367 17.40283203 C-7.77824376 18.91802568 -5.47360744 20.7714858 -3.00463867 22.78564453 C-2.11260742 23.51009766 -1.22057617 24.23455078 -0.30151367 24.98095703 C0.37395508 25.53525391 1.04942383 26.08955078 1.74536133 26.66064453 C1.41536133 28.31064453 1.08536133 29.96064453 0.74536133 31.66064453 C-4.06784023 31.21743997 -6.82918912 28.88311923 -10.31713867 25.78564453 C-15.16804119 21.5779008 -15.16804119 21.5779008 -20.25463867 17.66064453 C-19.91232181 14.76069191 -19.63247741 13.07748708 -17.64404297 10.88378906 C-16.96253174 10.35897949 -16.28102051 9.83416992 -15.57885742 9.29345703 C-14.46027344 8.43107422 -14.46027344 8.43107422 -13.3190918 7.55126953 C-12.53469727 6.96861328 -11.75030273 6.38595703 -10.94213867 5.78564453 C-9.78294922 4.87685547 -9.78294922 4.87685547 -8.6003418 3.94970703 C-2.8195788 -0.42438706 -2.8195788 -0.42438706 0 0 Z " fill="#779DEA" transform="translate(43.254638671875,17.33935546875)"/>
<path d="M0 0 C3.78386746 0.4362774 5.95200174 2.35348807 8.8125 4.75 C12.77469776 8.01367697 16.78718492 11.06934603 21 14 C20.65768314 16.89995262 20.37783874 18.58315745 18.3894043 20.77685547 C17.70789307 21.30166504 17.02638184 21.82647461 16.32421875 22.3671875 C15.57849609 22.94210938 14.83277344 23.51703125 14.06445312 24.109375 C13.28005859 24.69203125 12.49566406 25.2746875 11.6875 25.875 C10.91470703 26.48085938 10.14191406 27.08671875 9.34570312 27.7109375 C5.00106611 30.99836705 5.00106611 30.99836705 3 32 C0.74536133 31.66064453 0.74536133 31.66064453 -1 31 C-1.40234375 28.79296875 -1.40234375 28.79296875 -1 26 C1.14352719 24.17844908 3.06881082 22.76843775 5.4375 21.3125 C9.87769732 18.80372278 9.87769732 18.80372278 13 15 C12.45859375 14.75507813 11.9171875 14.51015625 11.359375 14.2578125 C8.44938857 12.70646212 5.9025804 10.83285696 3.25 8.875 C2.26515625 8.15054687 1.2803125 7.42609375 0.265625 6.6796875 C-0.48203125 6.12539063 -1.2296875 5.57109375 -2 5 C-1.125 1.125 -1.125 1.125 0 0 Z " fill="#799CE9" transform="translate(75,17)"/>
<path d="M0 0 C1.98 0 3.96 0 6 0 C3.14441451 14.79712479 -2.74262535 28.92478082 -8 43 C-9.98 43 -11.96 43 -14 43 C-12.40637693 34.74213501 -9.71774068 26.93684142 -7 19 C-6.47744911 17.396392 -5.95629007 15.79232863 -5.4375 14.1875 C-3.83918786 9.37419219 -1.92843281 4.68893054 0 0 Z " fill="#789EEB" transform="translate(63,11)"/>
<path d="M0 0 C1.98 0 3.96 0 6 0 C6.06058594 0.99902344 6.12117187 1.99804688 6.18359375 3.02734375 C6.26738281 4.31769531 6.35117188 5.60804687 6.4375 6.9375 C6.51871094 8.22527344 6.59992188 9.51304688 6.68359375 10.83984375 C6.64919188 13.86023957 6.64919188 13.86023957 8 15 C9.66617115 15.04063832 11.33388095 15.042721 13 15 C14.41634833 12.16730334 14.3463005 9.52533562 14.5625 6.375 C14.64628906 5.18648437 14.73007812 3.99796875 14.81640625 2.7734375 C14.87699219 1.85820312 14.93757813 0.94296875 15 0 C16.98 0 18.96 0 21 0 C21 6.6 21 13.2 21 20 C18.33333333 20 15.66666667 20 13 20 C12.33226562 20.05800781 11.66453125 20.11601563 10.9765625 20.17578125 C9.81253906 20.24345703 9.81253906 20.24345703 8.625 20.3125 C7.85414063 20.37050781 7.08328125 20.42851563 6.2890625 20.48828125 C4 20 4 20 1.7265625 17.96875 C-0.41385695 14.28839077 -0.4551995 11.31122067 -0.25 7.1875 C-0.23195312 6.49462891 -0.21390625 5.80175781 -0.1953125 5.08789062 C-0.14851064 3.39132336 -0.07677624 1.69547524 0 0 Z " fill="#9F92DC" transform="translate(249,28)"/>
<path d="M0 0 C1.45599609 0.02320312 1.45599609 0.02320312 2.94140625 0.046875 C5.4375 0.25 5.4375 0.25 7.4375 1.25 C7.1075 2.57 6.7775 3.89 6.4375 5.25 C3.1375 4.92 -0.1625 4.59 -3.5625 4.25 C-3.5625 5.24 -3.5625 6.23 -3.5625 7.25 C-2.510625 7.3325 -1.45875 7.415 -0.375 7.5 C3.70797209 8.30320762 5.4497727 9.44334709 8.4375 12.25 C7.95988806 17.62313433 7.95988806 17.62313433 5.875 20.125 C2.40719231 21.72552663 -0.84645339 21.82396363 -4.5625 21.25 C-7.5625 19.75 -7.5625 19.75 -9.5625 18.25 C-9.2325 16.93 -8.9025 15.61 -8.5625 14.25 C-4.9325 14.91 -1.3025 15.57 2.4375 16.25 C2.4375 15.26 2.4375 14.27 2.4375 13.25 C1.81101562 13.12882812 1.18453125 13.00765625 0.5390625 12.8828125 C-0.68683594 12.63144531 -0.68683594 12.63144531 -1.9375 12.375 C-2.74960937 12.21257813 -3.56171875 12.05015625 -4.3984375 11.8828125 C-6.5625 11.25 -6.5625 11.25 -8.5625 9.25 C-9.11651662 4.04224377 -9.11651662 4.04224377 -7.390625 1.57421875 C-4.86051297 -0.25849061 -3.09185801 -0.08233976 0 0 Z " fill="#A596DC" transform="translate(305.5625,27.75)"/>
<path d="M0 0 C1.65 0 3.3 0 5 0 C5 1.65 5 3.3 5 5 C6.65 5 8.3 5 10 5 C10 6.32 10 7.64 10 9 C8.35 9 6.7 9 5 9 C5.33 12.63 5.66 16.26 6 20 C7.32 20.33 8.64 20.66 10 21 C10.33 22.65 10.66 24.3 11 26 C3.59946476 26.36396075 3.59946476 26.36396075 1.25 24.9375 C-0.67816053 21.94885117 -0.2839325 19.31621405 -0.1875 15.8125 C-0.16042969 14.54019531 -0.13335937 13.26789062 -0.10546875 11.95703125 C-0.07066406 10.98121094 -0.03585937 10.00539063 0 9 C-1.32 9 -2.64 9 -4 9 C-4 7.68 -4 6.36 -4 5 C-2.68 5 -1.36 5 0 5 C0 3.35 0 1.7 0 0 Z " fill="#9E90DA" transform="translate(319,23)"/>
<path d="M0 0 C2.32528287 2.32528287 2.29511025 2.84665898 2.3125 6 C2.32925781 6.70125 2.34601563 7.4025 2.36328125 8.125 C2.18345703 9.053125 2.18345703 9.053125 2 10 C-1.22143276 12.14762184 -2.2595467 12.561068 -6 12 C-8.2855347 9.87208838 -8.92303658 8.52591672 -9.375 5.4375 C-9 3 -9 3 -7.875 1.1875 C-5.16554166 -0.52849028 -3.13704316 -0.333728 0 0 Z " fill="#F4F4F4" transform="translate(179,32)"/>
<path d="M0 0 C3.0625 0.3125 3.0625 0.3125 5 1.375 C6.7115104 4.49598955 5.85541991 6.95783884 5.0625 10.3125 C4.4025 10.9725 3.7425 11.6325 3.0625 12.3125 C-0.5 12.0625 -0.5 12.0625 -3.9375 11.3125 C-5.44412097 8.29925805 -5.11520373 5.62963623 -4.9375 2.3125 C-2.9375 0.3125 -2.9375 0.3125 0 0 Z " fill="#F5F5F5" transform="translate(150.9375,31.6875)"/>
<path d="M0 0 C3.96 0 7.92 0 12 0 C12 0.66 12 1.32 12 2 C8.53076119 4.31282587 7.07794425 4.42478586 3 4 C1.125 2.5625 1.125 2.5625 0 1 C0 0.67 0 0.34 0 0 Z " fill="#F6F6F6" transform="translate(196,40)"/>
<path d="M0 0 C1.98 0 3.96 0 6 0 C6.66 1.32 7.32 2.64 8 4 C4.7 4 1.4 4 -2 4 C-1.34 2.68 -0.68 1.36 0 0 Z " fill="#EEEEEE" transform="translate(198,32)"/>
<path d="M0 0 C1.98 0 3.96 0 6 0 C6.33 1.32 6.66 2.64 7 4 C4.03 4 1.06 4 -2 4 C-1.34 2.68 -0.68 1.36 0 0 Z " fill="#F8F7FC" transform="translate(281,32)"/>
</svg>
